<svg width="458" height="458" viewBox="0 0 458 458" fill="none" xmlns="http://www.w3.org/2000/svg">
<path d="M188.925 362.583C158.074 362.583 131.595 352.565 109.491 332.527C87.3858 312.49 76.3333 287.522 76.3333 257.625C76.3333 227.728 87.3858 202.76 109.491 182.723C131.595 162.685 158.074 152.667 188.925 152.667H309.15L259.533 103.05L286.25 76.3333L381.667 171.75L286.25 267.167L259.533 240.45L309.15 190.833H188.925C168.888 190.833 151.474 197.194 136.684 209.917C121.895 222.639 114.5 238.542 114.5 257.625C114.5 276.708 121.895 292.611 136.684 305.333C151.474 318.056 168.888 324.417 188.925 324.417H324.417V362.583H188.925Z" fill="#1D1B20"/>
</svg>
