<svg width="874" height="874" viewBox="0 0 874 874" fill="none" xmlns="http://www.w3.org/2000/svg">
<path d="M182.083 691.917H233.977L589.95 335.944L538.056 284.05L182.083 640.023V691.917ZM109.25 764.75V609.979L589.95 130.19C597.233 123.513 605.275 118.354 614.076 114.713C622.877 111.071 632.133 109.25 641.844 109.25C651.555 109.25 660.963 111.071 670.067 114.713C679.171 118.354 687.061 123.817 693.738 131.1L743.81 182.083C751.094 188.76 756.405 196.65 759.743 205.754C763.081 214.858 764.75 223.963 764.75 233.067C764.75 242.778 763.081 252.034 759.743 260.834C756.405 269.635 751.094 277.677 743.81 284.96L264.021 764.75H109.25ZM563.548 310.452L538.056 284.05L589.95 335.944L563.548 310.452Z" fill="#1D1B20"/>
</svg>
