<svg width="874" height="874" viewBox="0 0 874 874" fill="none" xmlns="http://www.w3.org/2000/svg">
<path d="M691.917 691.917H640.023L284.05 335.944L335.944 284.05L691.917 640.023V691.917ZM764.75 764.75V609.979L284.05 130.19C276.767 123.513 268.725 118.354 259.924 114.713C251.123 111.071 241.867 109.25 232.156 109.25C222.445 109.25 213.037 111.071 203.933 114.713C194.829 118.354 186.939 123.817 180.262 131.1L130.19 182.083C122.906 188.76 117.595 196.65 114.257 205.754C110.919 214.858 109.25 223.963 109.25 233.067C109.25 242.778 110.919 252.034 114.257 260.834C117.595 269.635 122.906 277.677 130.19 284.96L609.979 764.75H764.75ZM310.452 310.452L335.944 284.05L284.05 335.944L310.452 310.452Z" fill="#1D1B20"/>
</svg>
